<svg width="366" height="81" viewBox="0 0 366 81" fill="none" xmlns="http://www.w3.org/2000/svg">
<path d="M111.049 36.0071H120.032V39.8436H106.331V20.5439H119.698V24.3179H111.049V28.2326H118.966V31.9519H111.049V36.0071Z" fill="#062A30"/>
<path d="M122.952 39.8438V19.4346H127.527V39.836H122.952V39.8438Z" fill="#062A30"/>
<path d="M134.688 34.3508C135.134 35.8354 136.653 36.7808 138.786 36.7808C140.472 36.7808 141.905 36.2573 143.138 35.3744L144.904 38.1873C143.273 39.4531 141.005 40.2032 138.443 40.2032C133.471 40.2032 130.272 37.195 130.272 32.7568C130.272 28.3421 133.415 25.2557 137.99 25.2557C143.13 25.2557 146.328 29.2251 145.485 34.3586H134.688V34.3508ZM141.419 31.4832C141.053 29.8267 139.844 28.7015 138.022 28.7015C136.279 28.7015 134.959 29.7798 134.624 31.4832H141.419ZM142.406 19.4346L139.518 23.4586H136.009L137.807 19.4346H142.406Z" fill="#062A30"/>
<path d="M147.403 32.7257C147.403 28.3422 150.601 25.2559 155.152 25.2559C157.619 25.2559 159.839 26.1388 161.271 27.7406L158.772 30.5223C157.873 29.6393 156.608 29.1158 155.431 29.1158C153.354 29.1158 151.922 30.6082 151.922 32.7257C151.922 34.8432 153.298 36.3356 155.462 36.3356C156.807 36.3356 158.16 35.7261 158.971 34.6557L161.613 37.3045C160.037 39.2345 157.794 40.1955 155.128 40.1955C150.601 40.2033 147.403 37.1091 147.403 32.7257Z" fill="#062A30"/>
<path d="M173.46 39.3438C172.338 39.8361 171.049 40.0861 169.864 40.0861C166.323 40.0861 164.533 38.1874 164.533 34.6244V29.1626H162.233V25.6074H164.62L164.708 22.1851H169.116V25.6074H172.712V29.1626H169.116V34.179C169.116 35.4214 169.649 36.023 170.747 36.023C171.28 36.023 171.869 35.8824 172.489 35.6401L173.46 39.3438Z" fill="#062A30"/>
<path d="M186.429 25.7559L185.419 29.9206C184.774 29.7252 184.186 29.6471 183.621 29.6471C181.265 29.6471 180.279 31.2176 180.279 33.6477V39.8517H175.704V25.6153H179.889L179.945 27.5452C180.899 26.3341 182.387 25.4199 184.384 25.4199C185.021 25.4199 185.697 25.5059 186.429 25.7559Z" fill="#062A30"/>
<path d="M187.861 21.3646C187.861 19.7628 188.959 18.7471 190.67 18.7471C192.325 18.7471 193.423 19.7707 193.423 21.3646C193.423 22.9664 192.325 24.0135 190.67 24.0135C188.951 24.0135 187.861 22.9664 187.861 21.3646ZM188.363 39.8439V25.6153H192.938V39.8439H188.363Z" fill="#062A30"/>
<path d="M195.691 32.7257C195.691 28.3422 198.889 25.2559 203.44 25.2559C205.915 25.2559 208.127 26.1388 209.559 27.7406L207.061 30.5223C206.161 29.6393 204.896 29.1158 203.719 29.1158C201.642 29.1158 200.21 30.6082 200.21 32.7257C200.21 34.8432 201.586 36.3356 203.751 36.3356C205.095 36.3356 206.448 35.7261 207.259 34.6557L209.901 37.3045C208.326 39.2345 206.082 40.1955 203.416 40.1955C198.897 40.2033 195.691 37.1091 195.691 32.7257Z" fill="#062A30"/>
<path d="M224.979 30.9911V39.8439H221.016L220.929 38.1093C219.751 39.2657 217.921 40.0393 215.988 40.0393C212.98 40.0393 211.015 38.2499 211.015 35.6011C211.015 32.6241 213.426 30.8348 217.364 30.8348C218.486 30.8348 219.584 30.9755 220.762 31.2724V30.9129C220.762 29.3971 219.807 28.7329 217.643 28.7329C216.123 28.7329 214.81 29.0924 213.092 29.8112L211.994 26.6936C214.213 25.7012 215.924 25.3184 218.255 25.3184C222.56 25.3106 224.979 27.3812 224.979 30.9911ZM220.817 34.1634C219.751 33.8587 218.765 33.6946 217.953 33.6946C216.298 33.6946 215.423 34.2728 215.423 35.3745C215.423 36.3434 216.099 36.9216 217.388 36.9216C219.306 36.9216 220.682 35.734 220.817 34.1634Z" fill="#062A30"/>
<path d="M234.996 39.8436V20.5439H239.825V39.8436H234.996Z" fill="#062A30"/>
<path d="M258.022 30.9598V39.8361H253.447V32.1709C253.447 30.3503 252.659 29.358 251.036 29.358C249.238 29.358 248.204 30.5457 248.204 32.4209V39.8361H243.629V25.6153H247.814L247.87 27.5765C249.158 26.1153 250.646 25.3965 252.643 25.3965C255.969 25.3965 258.022 27.7093 258.022 30.9598Z" fill="#062A30"/>
<path d="M272.169 19.4346H276.72V39.836H272.535L272.479 37.9373C271.301 39.3672 269.559 40.172 267.427 40.172C263.464 40.172 260.632 37.109 260.632 32.7256C260.632 28.3421 263.496 25.3104 267.427 25.3104C269.336 25.3104 270.991 26.0293 272.169 27.2951V19.4346ZM272.224 32.7256C272.224 30.5768 270.768 29.1157 268.684 29.1157C266.607 29.1157 265.143 30.5768 265.143 32.7256C265.143 34.8743 266.599 36.3355 268.684 36.3355C270.768 36.3433 272.224 34.8743 272.224 32.7256Z" fill="#062A30"/>
<path d="M289.967 25.6152H294.542V39.8439H290.357L290.302 37.9139C289.013 39.375 287.493 40.0626 285.528 40.0626C282.186 40.0626 280.133 37.7498 280.133 34.4915V25.6152H284.708V33.3117C284.708 35.101 285.496 36.0933 287.119 36.0933C288.917 36.0933 289.952 34.9056 289.952 33.0304V25.6152H289.967Z" fill="#062A30"/>
<path d="M297.017 38.2109L298.648 35.1479C300.359 36.1402 301.934 36.6325 303.478 36.6325C304.687 36.6325 305.387 36.2731 305.387 35.6089C305.387 35.0307 304.798 34.6166 302.976 34.2025C299.324 33.3742 297.701 31.9678 297.701 29.569C297.701 27.0608 299.666 25.3496 303.342 25.3496C305.507 25.3496 307.607 25.9278 309.461 27.0608L307.83 30.0143C306.764 29.2955 304.966 28.7485 303.589 28.7485C302.467 28.7485 301.934 29.0533 301.934 29.6315C301.934 30.2644 302.467 30.6004 304.409 31.0379C308.116 31.8662 309.739 33.3508 309.739 35.5855C309.739 38.3671 307.297 40.1096 303.533 40.1096C301.202 40.1174 298.982 39.4532 297.017 38.2109Z" fill="#062A30"/>
<path d="M321.833 39.3438C320.711 39.8361 319.423 40.0861 318.237 40.0861C314.696 40.0861 312.906 38.1874 312.906 34.6244V29.1626H310.607V25.6074H312.994L313.081 22.1851H317.489V25.6074H321.085V29.1626H317.489V34.179C317.489 35.4214 318.022 36.023 319.12 36.023C319.653 36.023 320.242 35.8824 320.863 35.6401L321.833 39.3438Z" fill="#062A30"/>
<path d="M334.81 25.7559L333.8 29.9206C333.155 29.7252 332.567 29.6471 332.002 29.6471C329.647 29.6471 328.66 31.2176 328.66 33.6477V39.8517H324.085V25.6153H328.27L328.326 27.5452C329.281 26.3341 330.769 25.4199 332.766 25.4199C333.402 25.4199 334.078 25.5059 334.81 25.7559Z" fill="#062A30"/>
<path d="M336.243 21.3646C336.243 19.7628 337.341 18.7471 339.051 18.7471C340.706 18.7471 341.804 19.7707 341.804 21.3646C341.804 22.9664 340.706 24.0135 339.051 24.0135C337.333 24.0135 336.243 22.9664 336.243 21.3646ZM336.744 39.8439V25.6153H341.319V39.8439H336.744Z" fill="#062A30"/>
<path d="M357.996 30.9911V39.8439H354.033L353.946 38.1093C352.768 39.2657 350.938 40.0393 349.005 40.0393C345.997 40.0393 344.032 38.2499 344.032 35.6011C344.032 32.6241 346.443 30.8348 350.373 30.8348C351.495 30.8348 352.593 30.9755 353.771 31.2724V30.9129C353.771 29.3971 352.816 28.7329 350.652 28.7329C349.132 28.7329 347.819 29.0924 346.101 29.8112L345.003 26.6936C347.223 25.7012 348.933 25.3184 351.265 25.3184C355.585 25.3106 357.996 27.3812 357.996 30.9911ZM353.842 34.1634C352.776 33.8587 351.79 33.6946 350.978 33.6946C349.323 33.6946 348.448 34.2728 348.448 35.3745C348.448 36.3434 349.124 36.9216 350.413 36.9216C352.331 36.9216 353.699 35.734 353.842 34.1634Z" fill="#062A30"/>
<path d="M361.425 39.8438V19.4346H366V39.836H361.425V39.8438Z" fill="#062A30"/>
<path d="M105.726 50.8218H109.529C113.086 50.8218 115.624 53.0565 115.624 56.221C115.624 59.3855 113.094 61.6358 109.529 61.6358H105.726V50.8218ZM109.625 60.1903C112.171 60.1903 113.953 58.5495 113.953 56.221C113.953 53.9082 112.171 52.2673 109.625 52.2673H107.349V60.1903H109.625Z" fill="#E1251B"/>
<path d="M124.201 52.3064V55.3928H130.041V56.8695H124.201V60.1591H130.662V61.6358H122.562V50.8218H130.662V52.2986H124.201V52.3064Z" fill="#E1251B"/>
<path d="M154.229 60.1591V61.6358H146.758V50.8218H148.397V60.1591H154.229Z" fill="#E1251B"/>
<path d="M168.448 59.4407H162.711L161.748 61.6442H159.95L164.684 50.8301H166.482L171.208 61.6442H169.41L168.448 59.4407ZM167.827 58.003L165.583 52.8694L163.339 58.003H167.827Z" fill="#E1251B"/>
<path d="M187.026 50.8218H191.657C193.98 50.8218 195.746 52.2829 195.746 54.3457C195.746 56.4085 193.98 57.8697 191.657 57.8697H188.641V61.6358H187.018V50.8218H187.026ZM191.442 56.4007C193.033 56.4007 194.107 55.6272 194.107 54.3535C194.107 53.0799 193.033 52.3064 191.442 52.3064H188.649V56.4007H191.442Z" fill="#E1251B"/>
<path d="M203.878 52.3064V55.3928H209.718V56.8695H203.878V60.1591H210.339V61.6358H202.239V50.8218H210.339V52.2986H203.878V52.3064Z" fill="#E1251B"/>
<path d="M217.38 50.8218H219.003L225.337 59.0261V50.8218H226.96V61.6358H225.337L219.003 53.4315V61.6358H217.38V50.8218Z" fill="#E1251B"/>
<path d="M234.375 50.8218H235.998V61.6358H234.375V50.8218ZM236.508 47.5635L238.059 47.876L235.752 49.8919H234.598L236.508 47.5635Z" fill="#E1251B"/>
<path d="M243.414 50.8218H245.037L251.37 59.0261V50.8218H252.994V61.6358H251.37L245.037 53.4315V61.6358H243.414V50.8218Z" fill="#E1251B"/>
<path d="M259.796 60.081L260.775 58.9011C261.754 59.8153 262.907 60.4091 264.395 60.4091C265.915 60.4091 266.703 59.62 266.703 58.7526C266.703 57.7291 265.788 57.3384 263.95 56.9243C261.706 56.4086 260.21 55.7444 260.21 53.791C260.21 51.9782 261.809 50.6108 264.029 50.6108C265.732 50.6108 266.997 51.2281 268.055 52.1345L267.124 53.33C266.193 52.4939 265.087 52.0095 263.966 52.0095C262.732 52.0095 261.865 52.783 261.865 53.6503C261.865 54.6583 262.812 55.0021 264.626 55.4319C266.822 55.9319 268.342 56.6586 268.342 58.5964C268.342 60.4248 266.933 61.8078 264.332 61.8078C262.494 61.8156 260.966 61.1827 259.796 60.081Z" fill="#E1251B"/>
<path d="M275.224 57.0883V50.8218H276.839V57.0571C276.839 58.9948 278.12 60.3778 279.95 60.3778C281.764 60.3778 283.045 58.9948 283.045 57.0571V50.8218H284.684V57.0883C284.684 59.8622 282.711 61.8312 279.958 61.8312C277.181 61.8312 275.224 59.8622 275.224 57.0883Z" fill="#E1251B"/>
<path d="M299.285 60.1591V61.6358H291.813V50.8218H293.452V60.1591H299.285Z" fill="#E1251B"/>
<path d="M313.511 59.4407H307.774L306.811 61.6442H305.013L309.747 50.8301H311.546L316.272 61.6442H314.474L313.511 59.4407ZM312.882 58.003L310.639 52.8694L308.395 58.003H312.882Z" fill="#E1251B"/>
<path d="M25.9701 42.9067H13.534V74.1613H25.9701V42.9067Z" fill="#B2292E"/>
<path d="M39.4962 6.5498H27.1795V37.1871H39.4962V6.5498Z" fill="#B2292E"/>
<path d="M48.9642 74.1865H61.2809L61.2809 43.5493H48.9642V74.1865Z" fill="#B2292E"/>
<path d="M75.1096 6.5498H62.7929V37.1871H75.1096V6.5498Z" fill="#B2292E"/>
<path d="M75.1097 6.40424L65.6606 0L13.5304 74.1772L22.9795 80.5815L75.1097 6.40424Z" fill="#E1251B"/>
<path d="M39.4962 6.55806L30.0518 0.150879L0 42.9071H13.725L39.4962 6.55806Z" fill="#E1251B"/>
<path d="M48.9724 74.1768L58.4168 80.5839L88.8346 37.1792H75.1096L48.9724 74.1768Z" fill="#E1251B"/>
</svg>
